<mxfile host="app.diagrams.net" modified="2024-06-03T02:59:16.539Z" agent="Mozilla/5.0 (Windows NT 10.0; Win64; x64) AppleWebKit/537.36 (KHTML, like Gecko) Chrome/125.0.0.0 Safari/537.36 Edg/125.0.0.0" etag="ArQEhSXWLdHuqFEg2xc7" version="24.4.10" type="github">
  <diagram id="prtHgNgQTEPvFCAcTncT" name="Page-1">
    <mxGraphModel dx="1762" dy="973" grid="1" gridSize="10" guides="1" tooltips="1" connect="1" arrows="1" fold="1" page="1" pageScale="1" pageWidth="827" pageHeight="1169" math="0" shadow="0">
      <root>
        <mxCell id="0" />
        <mxCell id="1" parent="0" />
        <mxCell id="KtcSYUMauYDlxE6MzYY9-1" value="Pool" style="swimlane;childLayout=stackLayout;resizeParent=1;resizeParentMax=0;startSize=20;html=1;fillColor=#dae8fc;strokeColor=#6c8ebf;" parent="1" vertex="1">
          <mxGeometry x="230" y="20" width="1060" height="960" as="geometry">
            <mxRectangle x="220.00000000000045" y="360" width="60" height="30" as="alternateBounds" />
          </mxGeometry>
        </mxCell>
        <mxCell id="KtcSYUMauYDlxE6MzYY9-12" value="神工坊运维管理模块" style="swimlane;startSize=30;html=1;fillColor=#d5e8d4;strokeColor=#82b366;" parent="KtcSYUMauYDlxE6MzYY9-1" vertex="1">
          <mxGeometry y="20" width="230" height="940" as="geometry">
            <mxRectangle y="20" width="40" height="460" as="alternateBounds" />
          </mxGeometry>
        </mxCell>
        <mxCell id="KtcSYUMauYDlxE6MzYY9-15" value="" style="edgeStyle=orthogonalEdgeStyle;rounded=0;orthogonalLoop=1;jettySize=auto;html=1;" parent="KtcSYUMauYDlxE6MzYY9-12" source="KtcSYUMauYDlxE6MzYY9-8" target="KtcSYUMauYDlxE6MzYY9-14" edge="1">
          <mxGeometry relative="1" as="geometry" />
        </mxCell>
        <mxCell id="KtcSYUMauYDlxE6MzYY9-8" value="账户开通" style="rounded=1;whiteSpace=wrap;html=1;" parent="KtcSYUMauYDlxE6MzYY9-12" vertex="1">
          <mxGeometry x="70" y="35" width="90" height="25" as="geometry" />
        </mxCell>
        <mxCell id="KtcSYUMauYDlxE6MzYY9-14" value="转正订阅使用" style="whiteSpace=wrap;html=1;rounded=1;" parent="KtcSYUMauYDlxE6MzYY9-12" vertex="1">
          <mxGeometry x="60" y="80" width="110" height="30" as="geometry" />
        </mxCell>
        <mxCell id="HQkXqwJiE7lIhquMHrxb-29" value="工程文件保存至2.0用户指定路径" style="whiteSpace=wrap;html=1;rounded=1;" vertex="1" parent="KtcSYUMauYDlxE6MzYY9-12">
          <mxGeometry x="60" y="180" width="110" height="30" as="geometry" />
        </mxCell>
        <mxCell id="KtcSYUMauYDlxE6MzYY9-2" value="仿真流程控制模块&lt;br&gt;（工程文件、日志、报告）" style="swimlane;startSize=30;html=1;fillColor=#d5e8d4;strokeColor=#82b366;" parent="KtcSYUMauYDlxE6MzYY9-1" vertex="1">
          <mxGeometry x="230" y="20" width="235" height="940" as="geometry">
            <mxRectangle x="150" y="20" width="40" height="660" as="alternateBounds" />
          </mxGeometry>
        </mxCell>
        <mxCell id="KtcSYUMauYDlxE6MzYY9-16" value="导入工程文件" style="whiteSpace=wrap;html=1;rounded=1;" parent="KtcSYUMauYDlxE6MzYY9-2" vertex="1">
          <mxGeometry x="77.88" y="80" width="79.25" height="30" as="geometry" />
        </mxCell>
        <mxCell id="KtcSYUMauYDlxE6MzYY9-18" value="试验对象选择" style="whiteSpace=wrap;html=1;rounded=1;" parent="KtcSYUMauYDlxE6MzYY9-2" vertex="1">
          <mxGeometry x="80.17999999999999" y="130" width="74.63" height="30" as="geometry" />
        </mxCell>
        <mxCell id="KtcSYUMauYDlxE6MzYY9-20" value="业务模式定义" style="whiteSpace=wrap;html=1;rounded=1;" parent="KtcSYUMauYDlxE6MzYY9-2" vertex="1">
          <mxGeometry x="77.86999999999999" y="180" width="79.25" height="30" as="geometry" />
        </mxCell>
        <mxCell id="KtcSYUMauYDlxE6MzYY9-21" value="" style="endArrow=classic;html=1;rounded=0;exitX=0.5;exitY=1;exitDx=0;exitDy=0;entryX=0.5;entryY=0;entryDx=0;entryDy=0;" parent="KtcSYUMauYDlxE6MzYY9-2" source="KtcSYUMauYDlxE6MzYY9-18" target="KtcSYUMauYDlxE6MzYY9-20" edge="1">
          <mxGeometry width="50" height="50" relative="1" as="geometry">
            <mxPoint x="136.99999999999955" y="105" as="sourcePoint" />
            <mxPoint x="209.99999999999955" y="105" as="targetPoint" />
          </mxGeometry>
        </mxCell>
        <mxCell id="KtcSYUMauYDlxE6MzYY9-22" value="模型安装功能" style="whiteSpace=wrap;html=1;rounded=1;" parent="KtcSYUMauYDlxE6MzYY9-2" vertex="1">
          <mxGeometry x="77.87" y="286" width="79.25" height="30" as="geometry" />
        </mxCell>
        <mxCell id="KtcSYUMauYDlxE6MzYY9-29" value="" style="endArrow=classic;html=1;rounded=0;exitX=0.5;exitY=1;exitDx=0;exitDy=0;entryX=0.5;entryY=0;entryDx=0;entryDy=0;" parent="KtcSYUMauYDlxE6MzYY9-2" source="KtcSYUMauYDlxE6MzYY9-16" target="KtcSYUMauYDlxE6MzYY9-18" edge="1">
          <mxGeometry width="50" height="50" relative="1" as="geometry">
            <mxPoint x="139.99999999999955" y="150" as="sourcePoint" />
            <mxPoint x="189.99999999999955" y="100" as="targetPoint" />
          </mxGeometry>
        </mxCell>
        <mxCell id="HQkXqwJiE7lIhquMHrxb-31" value="几何导入" style="whiteSpace=wrap;html=1;rounded=1;" vertex="1" parent="KtcSYUMauYDlxE6MzYY9-2">
          <mxGeometry x="77.87999999999995" y="230" width="79.25" height="30" as="geometry" />
        </mxCell>
        <mxCell id="HQkXqwJiE7lIhquMHrxb-34" value="" style="endArrow=classic;html=1;rounded=0;exitX=0.5;exitY=1;exitDx=0;exitDy=0;entryX=0.5;entryY=0;entryDx=0;entryDy=0;" edge="1" parent="KtcSYUMauYDlxE6MzYY9-2" source="HQkXqwJiE7lIhquMHrxb-31" target="KtcSYUMauYDlxE6MzYY9-22">
          <mxGeometry width="50" height="50" relative="1" as="geometry">
            <mxPoint x="270" y="320" as="sourcePoint" />
            <mxPoint x="320" y="270" as="targetPoint" />
          </mxGeometry>
        </mxCell>
        <mxCell id="HQkXqwJiE7lIhquMHrxb-89" value="监控设置" style="whiteSpace=wrap;html=1;rounded=1;" vertex="1" parent="KtcSYUMauYDlxE6MzYY9-2">
          <mxGeometry x="71.43999999999983" y="410" width="92.12" height="30" as="geometry" />
        </mxCell>
        <mxCell id="KtcSYUMauYDlxE6MzYY9-4" value="前后处理引擎" style="swimlane;startSize=30;html=1;fillColor=#d5e8d4;strokeColor=#82b366;" parent="KtcSYUMauYDlxE6MzYY9-1" vertex="1">
          <mxGeometry x="465" y="20" width="180" height="940" as="geometry" />
        </mxCell>
        <mxCell id="HQkXqwJiE7lIhquMHrxb-4" value="前处理引擎驱动" style="whiteSpace=wrap;html=1;rounded=1;" vertex="1" parent="KtcSYUMauYDlxE6MzYY9-4">
          <mxGeometry x="40" y="326" width="92.12" height="30" as="geometry" />
        </mxCell>
        <mxCell id="HQkXqwJiE7lIhquMHrxb-93" value="前处理引擎驱动" style="whiteSpace=wrap;html=1;rounded=1;" vertex="1" parent="KtcSYUMauYDlxE6MzYY9-4">
          <mxGeometry x="43.940000000000055" y="500" width="92.12" height="30" as="geometry" />
        </mxCell>
        <mxCell id="KtcSYUMauYDlxE6MzYY9-48" value="外部命令调用模块&lt;br&gt;（求解器，，，）" style="swimlane;startSize=30;html=1;fillColor=#d5e8d4;strokeColor=#82b366;" parent="KtcSYUMauYDlxE6MzYY9-1" vertex="1">
          <mxGeometry x="645" y="20" width="195" height="940" as="geometry" />
        </mxCell>
        <mxCell id="KtcSYUMauYDlxE6MzYY9-49" value="交互界面模块&lt;br&gt;（图形显示、前端操作、数据实时更新）" style="swimlane;startSize=30;html=1;fillColor=#d5e8d4;strokeColor=#82b366;" parent="KtcSYUMauYDlxE6MzYY9-1" vertex="1">
          <mxGeometry x="840" y="20" width="220" height="940" as="geometry" />
        </mxCell>
        <mxCell id="HQkXqwJiE7lIhquMHrxb-2" value="移动缩放等几何操作" style="whiteSpace=wrap;html=1;rounded=1;" vertex="1" parent="KtcSYUMauYDlxE6MzYY9-49">
          <mxGeometry x="50.370000000000005" y="286" width="79.25" height="30" as="geometry" />
        </mxCell>
        <mxCell id="HQkXqwJiE7lIhquMHrxb-60" value="数据实时更新" style="whiteSpace=wrap;html=1;rounded=1;" vertex="1" parent="KtcSYUMauYDlxE6MzYY9-49">
          <mxGeometry x="43.93999999999989" y="370" width="92.12" height="30" as="geometry" />
        </mxCell>
        <mxCell id="HQkXqwJiE7lIhquMHrxb-91" value="点线面创建等几何操作" style="whiteSpace=wrap;html=1;rounded=1;" vertex="1" parent="KtcSYUMauYDlxE6MzYY9-49">
          <mxGeometry x="50.36999999999989" y="450" width="79.25" height="30" as="geometry" />
        </mxCell>
        <mxCell id="KtcSYUMauYDlxE6MzYY9-17" value="" style="edgeStyle=orthogonalEdgeStyle;rounded=0;orthogonalLoop=1;jettySize=auto;html=1;" parent="KtcSYUMauYDlxE6MzYY9-1" source="KtcSYUMauYDlxE6MzYY9-14" target="KtcSYUMauYDlxE6MzYY9-16" edge="1">
          <mxGeometry relative="1" as="geometry" />
        </mxCell>
        <mxCell id="HQkXqwJiE7lIhquMHrxb-3" value="" style="endArrow=classic;html=1;rounded=0;exitX=1;exitY=0.5;exitDx=0;exitDy=0;entryX=0;entryY=0.5;entryDx=0;entryDy=0;" edge="1" parent="KtcSYUMauYDlxE6MzYY9-1" source="KtcSYUMauYDlxE6MzYY9-22" target="HQkXqwJiE7lIhquMHrxb-2">
          <mxGeometry width="50" height="50" relative="1" as="geometry">
            <mxPoint x="384" y="426" as="sourcePoint" />
            <mxPoint x="434" y="376" as="targetPoint" />
          </mxGeometry>
        </mxCell>
        <mxCell id="HQkXqwJiE7lIhquMHrxb-7" value="" style="edgeStyle=orthogonalEdgeStyle;rounded=0;orthogonalLoop=1;jettySize=auto;html=1;entryX=1;entryY=0.5;entryDx=0;entryDy=0;" edge="1" parent="KtcSYUMauYDlxE6MzYY9-1" source="HQkXqwJiE7lIhquMHrxb-2" target="HQkXqwJiE7lIhquMHrxb-4">
          <mxGeometry relative="1" as="geometry">
            <mxPoint x="770" y="426" as="targetPoint" />
            <Array as="points">
              <mxPoint x="930" y="361" />
            </Array>
          </mxGeometry>
        </mxCell>
        <mxCell id="HQkXqwJiE7lIhquMHrxb-30" value="" style="endArrow=classic;html=1;rounded=0;exitX=0;exitY=0.5;exitDx=0;exitDy=0;entryX=1;entryY=0.5;entryDx=0;entryDy=0;" edge="1" parent="KtcSYUMauYDlxE6MzYY9-1" source="KtcSYUMauYDlxE6MzYY9-20" target="HQkXqwJiE7lIhquMHrxb-29">
          <mxGeometry width="50" height="50" relative="1" as="geometry">
            <mxPoint x="500" y="340" as="sourcePoint" />
            <mxPoint x="550" y="290" as="targetPoint" />
          </mxGeometry>
        </mxCell>
        <mxCell id="HQkXqwJiE7lIhquMHrxb-32" value="" style="endArrow=classic;html=1;rounded=0;exitX=0.5;exitY=1;exitDx=0;exitDy=0;entryX=0;entryY=0.5;entryDx=0;entryDy=0;" edge="1" parent="KtcSYUMauYDlxE6MzYY9-1" source="HQkXqwJiE7lIhquMHrxb-29" target="HQkXqwJiE7lIhquMHrxb-31">
          <mxGeometry width="50" height="50" relative="1" as="geometry">
            <mxPoint x="500" y="340" as="sourcePoint" />
            <mxPoint x="550" y="290" as="targetPoint" />
            <Array as="points">
              <mxPoint x="115" y="265" />
            </Array>
          </mxGeometry>
        </mxCell>
        <mxCell id="HQkXqwJiE7lIhquMHrxb-61" value="" style="endArrow=classic;html=1;rounded=0;exitX=0.5;exitY=1;exitDx=0;exitDy=0;entryX=0;entryY=0.5;entryDx=0;entryDy=0;" edge="1" parent="KtcSYUMauYDlxE6MzYY9-1" source="HQkXqwJiE7lIhquMHrxb-4" target="HQkXqwJiE7lIhquMHrxb-60">
          <mxGeometry width="50" height="50" relative="1" as="geometry">
            <mxPoint x="500" y="340" as="sourcePoint" />
            <mxPoint x="880" y="410" as="targetPoint" />
            <Array as="points">
              <mxPoint x="551" y="405" />
            </Array>
          </mxGeometry>
        </mxCell>
        <mxCell id="HQkXqwJiE7lIhquMHrxb-90" value="" style="endArrow=classic;html=1;rounded=0;exitX=0.5;exitY=1;exitDx=0;exitDy=0;entryX=1;entryY=0.5;entryDx=0;entryDy=0;" edge="1" parent="KtcSYUMauYDlxE6MzYY9-1" source="HQkXqwJiE7lIhquMHrxb-60" target="HQkXqwJiE7lIhquMHrxb-89">
          <mxGeometry width="50" height="50" relative="1" as="geometry">
            <mxPoint x="500" y="340" as="sourcePoint" />
            <mxPoint x="550" y="290" as="targetPoint" />
            <Array as="points">
              <mxPoint x="930" y="445" />
            </Array>
          </mxGeometry>
        </mxCell>
        <mxCell id="HQkXqwJiE7lIhquMHrxb-92" value="" style="endArrow=none;html=1;rounded=0;exitX=0.5;exitY=1;exitDx=0;exitDy=0;entryX=0;entryY=0.5;entryDx=0;entryDy=0;" edge="1" parent="KtcSYUMauYDlxE6MzYY9-1" source="HQkXqwJiE7lIhquMHrxb-89" target="HQkXqwJiE7lIhquMHrxb-91">
          <mxGeometry width="50" height="50" relative="1" as="geometry">
            <mxPoint x="360" y="520" as="sourcePoint" />
            <mxPoint x="410" y="470" as="targetPoint" />
            <Array as="points">
              <mxPoint x="347" y="485" />
            </Array>
          </mxGeometry>
        </mxCell>
        <mxCell id="HQkXqwJiE7lIhquMHrxb-94" value="" style="endArrow=classic;html=1;rounded=0;exitX=0.5;exitY=1;exitDx=0;exitDy=0;entryX=1;entryY=0.5;entryDx=0;entryDy=0;" edge="1" parent="KtcSYUMauYDlxE6MzYY9-1" source="HQkXqwJiE7lIhquMHrxb-91" target="HQkXqwJiE7lIhquMHrxb-93">
          <mxGeometry width="50" height="50" relative="1" as="geometry">
            <mxPoint x="510" y="410" as="sourcePoint" />
            <mxPoint x="560" y="360" as="targetPoint" />
            <Array as="points">
              <mxPoint x="930" y="535" />
            </Array>
          </mxGeometry>
        </mxCell>
      </root>
    </mxGraphModel>
  </diagram>
</mxfile>
